<svg xmlns="http://www.w3.org/2000/svg" width="256" height="256"><path fill-opacity=".016" d="M0 128.004v128.004l128.25-.254 128.25-.254.254-127.75L257.008 0H0v128.004m.485.496c0 70.4.119 99.053.265 63.672.146-35.38.146-92.98 0-128C.604 29.153.485 58.1.485 128.5" fill="#1976D2" fill-rule="evenodd"/><path fill-opacity=".159" d="M4.601 68.214C4.324 70.021 3.815 78.925 3.47 88c-.346 9.075-1.071 25.95-1.613 37.5-1.869 39.865-2.108 62.725-.664 63.64.719.456 5.454.836 10.522.845 8.341.014 9.321-.184 10.337-2.082.731-1.366 1.353-14.652 1.785-38.157.52-28.287.911-35.541 1.813-33.653 1.078 2.255 3.519 7.749 7.067 15.907 1.954 4.495 5.073 11.296 10.194 22.23 2.249 4.801 4.089 8.955 4.089 9.23 0 .276 1.75 4.223 3.889 8.771 2.139 4.548 4.182 9.244 4.541 10.437.359 1.192 1.567 3.329 2.684 4.75 1.798 2.286 2.751 2.582 8.304 2.582 6.278 0 9.582-1.67 9.582-4.842 0-.652.413-1.967.918-2.922C78.405 179.426 82 171.073 82 170.43c0-.785 18.835-47.437 20.052-49.666.521-.955.948-2.418.948-3.25 0-.833.383-1.514.85-1.514 1.093 0 2.149 14.914 2.154 30.404.006 22.317 1.192 40.649 2.727 42.184 2.099 2.099 20.539 1.996 22.299-.124.976-1.176 1.111-4.862.578-15.75-2.234-45.569-2.735-56.231-3.558-75.714-.499-11.825-1.228-23.862-1.618-26.75l-.711-5.25h-8.95c-8.059 0-9.137.224-10.827 2.25-1.033 1.237-1.892 2.736-1.911 3.331-.018.594-1.156 3.294-2.529 6-1.373 2.705-2.498 5.285-2.5 5.732-.002.447-1.298 3.597-2.879 7-1.58 3.403-3.877 8.662-5.104 11.687-2.202 5.432-3.668 8.903-6.441 15.25-.781 1.787-3.514 8.2-6.072 14.25-2.559 6.05-5.566 13.025-6.683 15.5a2215.183 2215.183 0 0 0-3.258 7.253l-1.226 2.753-1.096-2.253c-1.136-2.333-8.705-18.494-12.764-27.253C38.332 93.814 32.987 82.466 28.752 74L24.5 65.5l-9.698-.286-9.698-.285-.503 3.285m163.006-1.632c-.334.87-.607 28.529-.607 61.465 0 58.181.055 59.912 1.934 60.918 2.418 1.294 19.037 1.339 21.066.057 1.258-.795 1.5-4.429 1.5-22.484v-21.537h6.272l6.273-.001 5.316 8.25c2.923 4.537 5.501 8.743 5.727 9.345.227.602 4.012 6.789 8.412 13.749 9.13 14.441 8.299 13.955 23 13.459 8.766-.295 9.007-.368 9.278-2.803.2-1.794-3.806-8.851-14.192-24.999-13.171-20.48-14.289-22.567-12.451-23.247 3.343-1.236 10.843-7.859 13.804-12.19 5.926-8.666 8.999-24.501 6.165-31.767-.493-1.263-1.487-4.276-2.209-6.695C244.185 79.023 229.192 67 220.581 67c-1.355 0-2.741-.45-3.081-1-.385-.622-9.808-1-24.952-1-21.267 0-24.411.199-24.941 1.582m24.113 38.168.22 20.75 5.968.296c7.28.361 16.016-2.02 20.14-5.489 4.822-4.058 6.293-7.882 6.308-16.394.01-6.403-.362-8.119-2.385-11-1.319-1.877-3.089-3.952-3.934-4.61C214.859 85.828 206.904 84 199.312 84l-7.812-.001.22 20.751" fill="#1976D2" fill-rule="evenodd"/><path fill-opacity=".403" d="M5.529 67.25c-.703 2.244-1.836 27.313-3.142 69.534-.379 12.257-1.071 22.521-1.538 22.809-.467.289-.849 6.79-.849 14.447 0 16.279-.917 15.238 13 14.755l8.5-.295.743-17a5565.23 5565.23 0 0 0 1.5-38.454l.757-21.454 3.673 8.454c2.019 4.65 5.537 12.504 7.815 17.454 2.279 4.95 4.75 10.35 5.49 12a13123 13123 0 0 0 4.274 9.5c1.61 3.575 4.012 8.949 5.338 11.943 1.325 2.994 3.76 8.169 5.41 11.5l3 6.057 7 .285c7.985.325 6.609 1.786 12.522-13.285 1.727-4.4 3.737-9.35 4.468-11 2.279-5.148 18.225-44.886 18.924-47.16.365-1.188 1.255-2.65 1.977-3.25 1.077-.894 1.435 3.558 1.982 24.66.751 28.972 1.55 47.143 2.156 49 .292.895 3.405 1.25 10.971 1.25 8.907 0 10.662-.26 11.198-1.655.817-2.13-4.118-114.283-5.284-120.095-.424-2.11-.954-2.25-8.504-2.25-9.17 0-9.874.417-12.989 7.685-3.188 7.438-4.469 10.349-7.301 16.592-1.441 3.178-2.62 5.958-2.62 6.178 0 .356-9.708 23.46-13.676 32.545a593.44 593.44 0 0 0-2.369 5.5c-2.201 5.233-6.288 14.491-8.388 19l-2.329 5-3.004-6.5c-2.76-5.975-4.906-10.549-16.424-35-2.202-4.675-5.04-10.75-6.308-13.5-7.796-16.913-11.041-23.804-14.242-30.25L23.66 65h-8.713c-8.161 0-8.758.143-9.418 2.25m162.632.297c-1.542 3.384-1.661 116.65-.126 119.519.921 1.721 2.176 1.934 11.393 1.934 8.523 0 10.466-.28 10.965-1.582.334-.87.607-10.995.607-22.5V144h6.345c7.381 0 6.944-.368 14.827 12.5 3.032 4.95 8.134 13.275 11.338 18.5 9.059 14.773 7.89 14 21.164 14 10.127 0 11.324-.185 11.308-1.75-.01-.963-6.686-12.1-14.835-24.75l-14.817-23 4.085-2.321c12.876-7.317 19.277-19.9 18.355-36.083-.623-10.914-3.924-18.208-11.284-24.933-5.036-4.602-15.143-9.196-20.177-9.173-1.205.005-2.469-.44-2.809-.99-.382-.618-9.124-1-22.899-1h-22.28l-1.16 2.547M191 104.613v21.614l10.25-.462c11.526-.52 15.012-1.833 19.581-7.376 6.955-8.438 6.365-21.53-1.305-28.969-4.753-4.61-11.008-6.42-22.193-6.42H191v21.613" fill="#1976D2" fill-rule="evenodd"/><path fill-opacity=".984" d="M6.61 66.573c-1.097 2.86-5.205 93.175-4.875 107.177.03 1.238-.349 2.25-.841 2.25S0 178.313 0 181.14c0 3.722.483 5.506 1.75 6.468 2.335 1.772 17.615 1.887 18.991.142.58-.735 1.242-16.208 1.607-37.561.341-19.971 1.029-37.04 1.528-37.932.727-1.298 1.339-.638 3.07 3.311 2.485 5.665 2.712 6.17 7.619 16.932 2.007 4.4 5.233 11.6 7.169 16a1109.34 1109.34 0 0 0 7.394 16.349c2.129 4.592 3.872 8.499 3.872 8.681 0 1.289 6.237 13.422 7.393 14.381.843.7 3.65 1.072 6.743.894 6.177-.356 5.351.752 12.899-17.305.46-1.1 3.587-8.975 6.948-17.5 6.21-15.75 6.643-16.817 9.339-23 .84-1.925 2.53-6.2 3.757-9.5 1.226-3.3 2.948-7.11 3.825-8.466 1.522-2.352 1.626-1.887 2.248 10 .358 6.856.984 23.491 1.391 36.966.407 13.475 1.115 25.512 1.574 26.75.783 2.115 1.399 2.25 10.236 2.25 11.602 0 12.19-.484 11.265-9.268-.361-3.428-1.089-16.132-1.617-28.232-2.337-53.551-3.945-83.192-4.608-84.919-.474-1.234-2.15-1.581-7.635-1.581-6.251 0-7.29.282-9.393 2.552-1.301 1.403-2.365 2.967-2.365 3.474 0 .823-9.156 22.669-14.11 33.669-1.04 2.307-1.89 4.45-1.89 4.761 0 .494-2.202 5.68-5.114 12.044-.504 1.1-4.173 9.585-8.153 18.857-3.981 9.271-7.638 16.921-8.126 17-1.072.172-1.524-.618-6.207-10.857-2.012-4.4-5.792-12.5-8.4-18-4.778-10.077-8.966-18.995-15.615-33.25-1.988-4.263-6.054-12.812-9.035-19L22.929 65h-7.857c-6.225 0-7.983.327-8.462 1.573m162.551.974c-1.542 3.384-1.661 116.65-.126 119.519.903 1.687 2.149 1.932 9.75 1.919 4.793-.009 9.268-.367 9.945-.797.898-.57 1.303-6.703 1.5-22.735l.27-21.953 6.5-.258c3.575-.142 6.957.083 7.515.5C205.529 144.5 221 168.711 221 169.54c0 .871 9.275 15.012 11.288 17.21 1.881 2.053 2.958 2.25 12.327 2.25 5.699 0 10.539-.441 10.879-.99.337-.545-6.2-11.552-14.525-24.46-8.325-12.908-14.855-23.925-14.51-24.483.344-.557 2.19-1.755 4.101-2.662 3.739-1.775 11.671-10.018 14.031-14.581.797-1.541 2.157-6.227 3.023-10.414 1.892-9.149.714-17.969-3.44-25.743-2.853-5.341-9.044-11.826-13.07-13.693a152.77 152.77 0 0 1-4.415-2.137c-.996-.512-5.383-1.451-9.75-2.087-4.366-.637-7.939-1.516-7.939-1.954 0-.438-8.703-.796-19.339-.796h-19.34l-1.16 2.547m22.57 15.13c-1.634.441-1.749 2.134-1.5 22.15l.269 21.673 7.859.294c18.831.705 28.6-8.152 27.405-24.847-.423-5.913-.987-7.654-3.472-10.725-4.398-5.433-10.245-7.883-20.292-8.5-4.675-.287-9.296-.307-10.269-.045" fill="#1976D2" fill-rule="evenodd"/></svg>